<svg version="1.1" xmlns="http://www.w3.org/2000/svg"  viewBox="0 0 1536 1024" width="1536" height="1024"><path d="M0 0 C6.19258029 2.25276575 9.64575223 6.51123092 13 12 C15.21610269 18.64830806 14 25.99206799 14 33 C49.31 33 84.62 33 121 33 C121 26.73 121 20.46 121 14 C123.30254167 7.81191926 125.84801078 3.98990169 131.6953125 0.8125 C137.52191401 -1.24162392 143.64713096 -0.91563536 149.3125 1.5 C154.50289543 4.47967145 158.12470493 9.37411478 160 15 C160.08021999 16.40824893 160.10765977 17.81997231 160.09765625 19.23046875 C160.09443359 20.03291016 160.09121094 20.83535156 160.08789062 21.66210938 C160.07951172 22.49548828 160.07113281 23.32886719 160.0625 24.1875 C160.05798828 25.03248047 160.05347656 25.87746094 160.04882812 26.74804688 C160.03705403 28.83206155 160.0191189 30.91603977 160 33 C161.02770508 32.9685791 162.05541016 32.9371582 163.11425781 32.90478516 C166.98307048 32.79492829 170.85175021 32.72685604 174.72167969 32.67041016 C176.38597917 32.64051833 178.05012504 32.59978797 179.71386719 32.54736328 C193.45897276 32.12558206 203.86522947 34.24921417 214.3125 44 C218.78462335 49.30029434 222.11762599 56.26225377 222.13422108 63.2427597 C222.13867892 64.11279806 222.14313676 64.98283641 222.14772969 65.87923956 C222.14745315 67.31398241 222.14745315 67.31398241 222.14717102 68.77770996 C222.15084771 69.7934001 222.1545244 70.80909024 222.1583125 71.85555887 C222.16936796 75.27545576 222.17319638 78.69532228 222.17700195 82.11523438 C222.1832653 84.56085304 222.18991199 87.00647074 222.19691467 89.4520874 C222.21615735 96.8043097 222.22674644 104.15652394 222.23564246 111.50876403 C222.24002699 114.97311349 222.24539349 118.43746143 222.25063133 121.90180969 C222.26764578 133.42264234 222.28213808 144.94347404 222.28938007 156.46431732 C222.29128991 159.45407614 222.29321024 162.44383496 222.29516602 165.43359375 C222.29564976 166.17666552 222.2961335 166.9197373 222.2966319 167.6853264 C222.30492513 179.71195792 222.33024909 191.73848974 222.36274669 203.76507777 C222.39585754 216.11965343 222.41383259 228.47417852 222.41702431 240.82879877 C222.41918603 247.76249019 222.42788457 254.69603636 222.45348549 261.62968445 C222.47752919 268.15662196 222.48099291 274.68334572 222.47072411 281.21033478 C222.47022899 283.60198586 222.47654229 285.99364986 222.49028015 288.38526154 C222.50802962 291.65929192 222.50087703 294.93238895 222.48774719 298.2064209 C222.49871644 299.14507036 222.50968568 300.08371982 222.52098733 301.0508132 C222.42411056 311.10892169 219.17519827 320.7613044 212 328 C202.41862293 335.69307648 193.3208214 338.15176854 181.24079895 338.14044189 C179.75651942 338.14489858 179.75651942 338.14489858 178.24225444 338.1494453 C174.92296902 338.15812428 171.6037197 338.15963988 168.28442383 338.16113281 C165.90585249 338.16576156 163.52728189 338.1707863 161.14871216 338.17617798 C154.68366826 338.18929875 148.21863126 338.19578325 141.75357652 338.20018864 C137.71397346 338.20295431 133.67437279 338.20719227 129.63477135 338.21169281 C118.44240501 338.22388339 107.25004057 338.23418293 96.05766773 338.2375679 C94.98376027 338.23789725 94.98376027 338.23789725 93.88815771 338.23823325 C92.81173181 338.23856067 92.81173181 338.23856067 91.71355993 338.2388947 C90.2594794 338.23933816 88.80539888 338.23978472 87.35131836 338.24023438 C86.26941519 338.24056652 86.26941519 338.24056652 85.1656554 338.24090537 C73.4844535 338.24485149 61.80331406 338.26230074 50.12213627 338.2855939 C38.11893549 338.30933526 26.11576601 338.32177103 14.11254138 338.32293582 C7.37735414 338.32385105 0.64224827 338.32956483 -6.09291649 338.34775543 C-12.43027092 338.36424279 -18.76747108 338.36638825 -25.10483932 338.35761642 C-27.42756755 338.35684641 -29.7503041 338.36118408 -32.0730114 338.37107468 C-35.25081731 338.38381013 -38.42807816 338.37790832 -41.60588074 338.36749268 C-42.97532287 338.37957728 -42.97532287 338.37957728 -44.3724305 338.39190602 C-56.90132415 338.29626811 -66.53749213 333.77738778 -75.3125 324.9375 C-85.08565481 312.86796442 -83.58400821 297.51628248 -83.54931641 282.85717773 C-83.558022 280.42155332 -83.56839208 277.98593439 -83.58029175 275.55032349 C-83.60420379 269.64780357 -83.60939033 263.74545263 -83.60469122 257.84290271 C-83.60111072 253.04209411 -83.60465426 248.24134047 -83.61314011 243.44053841 C-83.61433048 242.7546995 -83.61552086 242.0688606 -83.61674731 241.36223869 C-83.61917104 239.9685544 -83.62159931 238.57487012 -83.62403207 237.18118585 C-83.6457299 224.14390809 -83.64148243 211.10673408 -83.62926237 198.06945056 C-83.61891954 186.16367825 -83.64145585 174.25823298 -83.67945881 162.35252535 C-83.71827205 150.09817047 -83.73471836 137.84397012 -83.72721231 125.58955342 C-83.7233979 118.72132498 -83.72826931 111.85337507 -83.75664139 104.98519707 C-83.78304938 98.52778214 -83.77787329 92.07085762 -83.75181961 85.61343765 C-83.74709809 83.24961816 -83.75252162 80.88575232 -83.76906586 78.52198601 C-83.86312787 64.03375538 -83.62644094 53.44850838 -73.75 42.0625 C-66.93051207 35.83667285 -58.79876429 32.83378772 -49.70703125 32.90234375 C-48.64798836 32.90446617 -48.64798836 32.90446617 -47.56755066 32.90663147 C-45.31582374 32.91222236 -43.06419679 32.92477312 -40.8125 32.9375 C-39.28450665 32.94251618 -37.75651173 32.94707888 -36.22851562 32.95117188 C-32.48563865 32.9621888 -28.74283627 32.97944713 -25 33 C-25.04640625 31.7934375 -25.0928125 30.586875 -25.140625 29.34375 C-25.17817287 27.72919164 -25.21456977 26.11460622 -25.25 24.5 C-25.28351563 23.70851563 -25.31703125 22.91703125 -25.3515625 22.1015625 C-25.46416394 15.23287488 -23.7810084 10.09196503 -19.1484375 4.94140625 C-18.56320313 4.48636719 -17.97796875 4.03132813 -17.375 3.5625 C-16.78460938 3.08941406 -16.19421875 2.61632812 -15.5859375 2.12890625 C-10.94535631 -1.1743646 -5.47132236 -0.59724598 0 0 Z " transform="translate(206,320)" style="fill: #138DF2;"></path><path d="M0 0 C6.19258029 2.25276575 9.64575223 6.51123092 13 12 C15.21610269 18.64830806 14 25.99206799 14 33 C49.31 33 84.62 33 121 33 C121 26.73 121 20.46 121 14 C123.30254167 7.81191926 125.84801078 3.98990169 131.6953125 0.8125 C137.52191401 -1.24162392 143.64713096 -0.91563536 149.3125 1.5 C154.50289543 4.47967145 158.12470493 9.37411478 160 15 C160.08021999 16.40824893 160.10765977 17.81997231 160.09765625 19.23046875 C160.09443359 20.03291016 160.09121094 20.83535156 160.08789062 21.66210938 C160.07951172 22.49548828 160.07113281 23.32886719 160.0625 24.1875 C160.05798828 25.03248047 160.05347656 25.87746094 160.04882812 26.74804688 C160.03705403 28.83206155 160.0191189 30.91603977 160 33 C161.02770508 32.9685791 162.05541016 32.9371582 163.11425781 32.90478516 C166.98307048 32.79492829 170.85175021 32.72685604 174.72167969 32.67041016 C176.38597917 32.64051833 178.05012504 32.59978797 179.71386719 32.54736328 C193.45897276 32.12558206 203.86522947 34.24921417 214.3125 44 C231.48594554 64.35371323 222 102.89129585 222 122 C121.35 122 20.7 122 -83 122 C-83 53.26923077 -83 53.26923077 -73.75 42.0625 C-66.93051207 35.83667285 -58.79876429 32.83378772 -49.70703125 32.90234375 C-48.64798836 32.90446617 -48.64798836 32.90446617 -47.56755066 32.90663147 C-45.31582374 32.91222236 -43.06419679 32.92477312 -40.8125 32.9375 C-39.28450665 32.94251618 -37.75651173 32.94707888 -36.22851562 32.95117188 C-32.48563865 32.9621888 -28.74283627 32.97944713 -25 33 C-25.04640625 31.7934375 -25.0928125 30.586875 -25.140625 29.34375 C-25.17817287 27.72919164 -25.21456977 26.11460622 -25.25 24.5 C-25.28351563 23.70851563 -25.31703125 22.91703125 -25.3515625 22.1015625 C-25.46416394 15.23287488 -23.7810084 10.09196503 -19.1484375 4.94140625 C-18.56320313 4.48636719 -17.97796875 4.03132813 -17.375 3.5625 C-16.78460938 3.08941406 -16.19421875 2.61632812 -15.5859375 2.12890625 C-10.94535631 -1.1743646 -5.47132236 -0.59724598 0 0 Z " transform="translate(206,320)" style="fill: #48E669;"></path><path d="M0 0 C2.13334022 -0.00218879 4.26616522 -0.02035646 6.39941406 -0.03930664 C7.75097479 -0.0422402 9.10253798 -0.04422525 10.45410156 -0.04516602 C11.68773437 -0.0492749 12.92136719 -0.05338379 14.19238281 -0.05761719 C17.14160156 0.18530273 17.14160156 0.18530273 19.14160156 2.18530273 C19.38769722 5.16443825 19.38769722 5.16443825 19.3821106 9.06948853 C19.38381945 9.78581904 19.3855283 10.50214955 19.38728893 11.24018705 C19.3905963 13.65249375 19.37955983 16.06452535 19.36865234 18.47680664 C19.3680885 20.20121758 19.36840427 21.92562901 19.36953735 23.65003967 C19.37011291 28.34196212 19.35832587 33.03378301 19.34438944 37.72568178 C19.33191579 42.62508923 19.33071424 47.52449881 19.32833862 52.42391968 C19.32211393 61.70640064 19.30568977 70.98883468 19.28563964 80.27129495 C19.26331137 90.83703458 19.25229495 101.40277642 19.24224877 111.96853375 C19.22132437 133.70748297 19.18612923 155.4463899 19.14160156 177.18530273 C16.16800707 178.67209998 13.47860977 178.29642878 10.16503906 178.28295898 C9.13716782 178.28083656 9.13716782 178.28083656 8.08853149 178.27867126 C5.89784395 178.27306948 3.70725826 178.2605168 1.51660156 178.24780273 C0.03222804 178.24278796 -1.45214709 178.23822501 -2.93652344 178.23413086 C-6.57721934 178.22394994 -10.21769475 178.20437511 -13.85839844 178.18530273 C-13.85839844 172.90530273 -13.85839844 167.62530273 -13.85839844 162.18530273 C-14.51839844 162.18530273 -15.17839844 162.18530273 -15.85839844 162.18530273 C-16.11492187 162.92651367 -16.37144531 163.66772461 -16.63574219 164.43139648 C-19.75269885 171.45201773 -25.91200889 175.74451536 -32.87792969 178.49389648 C-43.01369194 182.03241703 -57.6684861 182.12639298 -67.67089844 178.12280273 C-70.33105469 176.75561523 -70.33105469 176.75561523 -72.85839844 175.18530273 C-73.82648438 174.58459961 -74.79457031 173.98389648 -75.79199219 173.36499023 C-78.26007013 171.72873329 -80.63338611 170.13957241 -82.85839844 168.18530273 C-82.85839844 167.52530273 -82.85839844 166.86530273 -82.85839844 166.18530273 C-83.51839844 166.18530273 -84.17839844 166.18530273 -84.85839844 166.18530273 C-99.31569091 151.46751851 -103.10013209 132.9617376 -103.03686523 113.09936523 C-102.8239526 93.21367115 -95.19724144 75.39994936 -81.58105469 60.85327148 C-70.81393537 50.42796548 -59.48053322 47.47372993 -44.82836914 47.65966797 C-34.58850218 48.03571078 -26.76346 50.59775143 -18.85839844 57.18530273 C-17.86839844 58.50530273 -16.87839844 59.82530273 -15.85839844 61.18530273 C-15.52839844 41.38530273 -15.19839844 21.58530273 -14.85839844 1.18530273 C-10.55166902 -0.96806197 -4.78514839 -0.00055205 0 0 Z " transform="translate(1137.8583984375,416.814697265625)" style="fill: #1A1B1B;"></path><path d="M0 0 C0.81130875 -0.0033284 1.62261749 -0.0066568 2.45851135 -0.01008606 C4.17586703 -0.01515255 5.89323256 -0.01749447 7.6105957 -0.01733398 C10.23991089 -0.01951962 12.86880601 -0.03767561 15.49804688 -0.05664062 C17.16536315 -0.05957475 18.83268141 -0.06155942 20.5 -0.0625 C21.6813578 -0.07327827 21.6813578 -0.07327827 22.88658142 -0.08427429 C26.72945315 -0.06816842 28.54241202 -0.01469407 31.81640625 2.16796875 C33.11572266 5.02758789 33.11572266 5.02758789 34.41796875 8.703125 C34.65574036 9.36513412 34.89351196 10.02714325 35.13848877 10.70921326 C35.91560137 12.87971745 36.67848669 15.05493971 37.44140625 17.23046875 C37.97706797 18.73471698 38.51369674 20.23862117 39.05126953 21.7421875 C40.13488217 24.77706024 41.21324436 27.81371558 42.28710938 30.85205078 C44.39165007 36.80160246 46.54405967 42.73376657 48.69140625 48.66796875 C51.25905018 55.7847402 53.78992506 62.91417257 56.30516052 70.04960632 C58.48884302 76.24362859 60.68082621 82.43468703 62.875 88.625 C63.40864166 90.13083145 63.40864166 90.13083145 63.95306396 91.66708374 C65.42004144 95.806545 66.88711072 99.94597357 68.35473633 104.08520508 C72.13402086 114.74479027 75.90898888 125.40585948 79.65234375 136.078125 C79.9265062 136.85815384 80.20066864 137.63818268 80.48313904 138.44184875 C82.38442786 143.87251649 84.20837246 149.32650487 86.00390625 154.79296875 C87.85021347 160.39888869 89.80079508 165.90027958 92.15234375 171.3203125 C92.81640625 173.16796875 92.81640625 173.16796875 92.81640625 176.16796875 C93.47640625 176.16796875 94.13640625 176.16796875 94.81640625 176.16796875 C94.81640625 176.82796875 94.81640625 177.48796875 94.81640625 178.16796875 C89.60202582 178.26680515 84.38818982 178.33942081 79.1730957 178.38769531 C77.39891056 178.40781778 75.62479179 178.43511905 73.85083008 178.46972656 C71.30142858 178.51821867 68.7529033 178.54093028 66.203125 178.55859375 C65.40927902 178.57923889 64.61543304 178.59988403 63.79753113 178.62115479 C58.36042893 178.623373 58.36042893 178.623373 55.9609375 176.61474609 C54.4370087 173.35689318 53.22391784 170.04511837 52.1171875 166.62890625 C51.87727585 165.9068399 51.6373642 165.18477356 51.3901825 164.44082642 C50.88671139 162.9207023 50.38684541 161.39937995 49.89038086 159.87695312 C49.12842733 157.54150081 48.35523049 155.21000707 47.58007812 152.87890625 C47.09178819 151.39995723 46.60413563 149.9207976 46.1171875 148.44140625 C45.88598709 147.74244232 45.65478668 147.04347839 45.4165802 146.32333374 C43.81640625 141.40130537 43.81640625 141.40130537 43.81640625 139.16796875 C25.00640625 139.16796875 6.19640625 139.16796875 -13.18359375 139.16796875 C-13.18359375 138.50796875 -13.18359375 137.84796875 -13.18359375 137.16796875 C-16.15359375 137.16796875 -19.12359375 137.16796875 -22.18359375 137.16796875 C-22.30347656 138.18246094 -22.42335938 139.19695312 -22.546875 140.2421875 C-23.16249773 144.03789819 -24.11303129 147.35285175 -25.37109375 150.98046875 C-25.81811607 152.28110993 -26.26471029 153.58189831 -26.7109375 154.8828125 C-26.94796387 155.56843262 -27.18499023 156.25405273 -27.42919922 156.96044922 C-28.24161598 159.33775418 -29.02947318 161.72223397 -29.8125 164.109375 C-30.08231689 164.93010498 -30.35213379 165.75083496 -30.63012695 166.59643555 C-31.16024972 168.21064407 -31.68876787 169.82538057 -32.21557617 171.44067383 C-34.07174252 177.05611752 -34.07174252 177.05611752 -35.18359375 178.16796875 C-37.84985405 178.25652036 -40.49006489 178.28321548 -43.15625 178.265625 C-43.95389267 178.26421005 -44.75153534 178.2627951 -45.573349 178.26133728 C-48.1309681 178.25572191 -50.68850093 178.24316687 -53.24609375 178.23046875 C-54.9759102 178.22545573 -56.70572801 178.22089248 -58.43554688 178.21679688 C-62.68492928 178.2057475 -66.93424687 178.18847261 -71.18359375 178.16796875 C-70.6387495 173.68120076 -69.82856958 169.65971542 -68.28515625 165.4140625 C-67.89368408 164.32746338 -67.50221191 163.24086426 -67.09887695 162.12133789 C-66.6730835 160.96110107 -66.24729004 159.80086426 -65.80859375 158.60546875 C-65.36668701 157.38400146 -64.92478027 156.16253418 -64.46948242 154.90405273 C-62.11164963 148.39163747 -59.71604968 141.8930761 -57.3203125 135.39453125 C-56.61267998 133.47451124 -55.90510361 131.55447063 -55.19769287 129.6343689 C-54.73025055 128.36589025 -54.26251814 127.09751847 -53.79449463 125.82925415 C-50.21029854 116.10850848 -46.824395 106.34052981 -43.62109375 96.48828125 C-42.48408547 93.01391868 -41.23909116 89.59472204 -39.93847656 86.17871094 C-38.57741297 82.55331645 -37.32684475 78.88912879 -36.05859375 75.23046875 C-33.38309649 67.54390557 -30.64312116 59.88269779 -27.87109375 52.23046875 C-24.43717254 42.73655519 -21.09536156 33.21357679 -17.80859375 23.66796875 C-17.39182373 22.45761963 -16.97505371 21.24727051 -16.5456543 20.00024414 C-16.15031494 18.84903076 -15.75497559 17.69781738 -15.34765625 16.51171875 C-14.78739746 14.88363281 -14.78739746 14.88363281 -14.21582031 13.22265625 C-13.28031082 10.4541854 -12.39761974 7.67374305 -11.51953125 4.88671875 C-9.32968598 -1.2089909 -5.76509629 0.00812508 0 0 Z " transform="translate(1242.18359375,416.83203125)" style="fill: #1B1B1B;"></path><path d="M0 0 C2.18569771 0.02147626 4.3681109 0.00005747 6.55371094 -0.02539062 C22.64380414 -0.05843773 37.5921094 4.0164733 49.56152344 15.39648438 C50.7983148 16.7459441 52.0081733 18.1207041 53.18652344 19.52148438 C53.72921875 20.15183594 54.27191406 20.7821875 54.83105469 21.43164062 C58.50626016 26.26058148 60.33484821 31.39934318 62.06152344 37.14648438 C62.38479614 38.22144165 62.38479614 38.22144165 62.71459961 39.31811523 C63.96307897 43.80550085 64.48851001 47.8225733 64.18652344 52.52148438 C62.21910715 54.48890066 58.41084613 53.68536644 55.72167969 53.68945312 C54.59891884 53.69444572 54.59891884 53.69444572 53.45347595 53.69953918 C51.8671836 53.7046113 50.28088053 53.70694742 48.69458008 53.70678711 C46.26267975 53.70897211 43.83123394 53.72712018 41.39941406 53.74609375 C39.86100416 53.74902787 38.3225921 53.75101254 36.78417969 53.75195312 C36.05393082 53.75913864 35.32368195 53.76632416 34.57130432 53.77372742 C29.41534651 53.75030745 29.41534651 53.75030745 27.18652344 51.52148438 C26.58487623 49.61674345 26.02845153 47.69754856 25.49902344 45.77148438 C23.65752333 40.0046814 21.43110877 36.60009247 16.18652344 33.52148438 C7.5029336 30.62695443 -4.92077984 31.12214313 -13.63769531 33.61523438 C-20.51407855 37.14254692 -23.39597169 41.26896975 -25.81347656 48.52148438 C-26.40406771 54.54551412 -25.0894914 58.57491892 -21.81347656 63.52148438 C-13.52608615 72.31114088 0.87708942 74.76111052 12.24902344 76.77148438 C24.51867329 79.16525672 37.41929747 83.51804873 47.18652344 91.52148438 C48.02570313 92.18921875 48.86488281 92.85695313 49.72949219 93.54492188 C58.56870841 100.98709802 65.37844981 110.90264602 67.18652344 122.52148438 C68.43971236 138.60439734 66.91915722 153.66757709 56.18652344 166.52148438 C45.17989599 179.08414231 30.98714989 184.44985104 14.47705078 185.83203125 C0.74692096 186.44833767 -13.58954722 186.7190155 -26.81347656 182.52148438 C-27.8228125 182.204375 -28.83214844 181.88726563 -29.87207031 181.56054688 C-42.7255484 176.84704776 -53.79421012 168.99717068 -59.81347656 156.52148438 C-60.31621094 155.52375 -60.81894531 154.52601563 -61.33691406 153.49804688 C-64.14559184 147.21343638 -65.10844657 141.88031722 -64.94238281 135.09570312 C-64.93307739 134.36331421 -64.92377197 133.63092529 -64.91418457 132.87634277 C-64.89015009 131.09123613 -64.85316909 129.30631151 -64.81347656 127.52148438 C-60.00799059 127.47211554 -55.20265162 127.43577995 -50.39697266 127.41162109 C-48.76152984 127.40155183 -47.12610507 127.38789557 -45.49072266 127.37060547 C-43.14253286 127.34639733 -40.79458069 127.3350108 -38.44628906 127.32617188 C-37.71290314 127.3158493 -36.97951721 127.30552673 -36.22390747 127.29489136 C-34.41884959 127.29449069 -32.61439826 127.39935683 -30.81347656 127.52148438 C-27.61994744 130.71501349 -27.61188047 134.91786856 -26.79003906 139.25976562 C-25.45102956 143.73205735 -23.42909583 146.37696697 -19.62988281 149.06835938 C-18.88609375 149.46539063 -18.14230469 149.86242187 -17.37597656 150.27148438 C-16.63476562 150.67882812 -15.89355469 151.08617187 -15.12988281 151.50585938 C-9.18863316 154.11079177 -2.86571946 153.73927821 3.49902344 153.77148438 C4.50642578 153.79210937 5.51382813 153.81273437 6.55175781 153.83398438 C13.52769281 153.87034104 19.58318136 153.45702561 25.20996094 148.87304688 C29.49820522 143.39500071 31.74333941 139.09071451 31.56542969 131.99804688 C30.65651556 126.05730919 28.1252914 121.01925657 23.37011719 117.34570312 C20.31939178 115.59761875 17.75596201 114.55817513 14.37402344 113.64648438 C13.15972656 113.31648437 11.94542969 112.98648438 10.69433594 112.64648438 C7.22167328 111.76025701 3.73423208 110.94841417 0.24121094 110.14648438 C-19.46481355 105.61277941 -40.85555985 100.57577475 -53.81347656 83.52148438 C-61.58391949 70.65793925 -64.83684805 57.61429055 -62.31347656 42.53320312 C-58.85687678 28.64788467 -51.30165788 17.29432381 -38.97753906 9.75585938 C-38.26339844 9.34851563 -37.54925781 8.94117188 -36.81347656 8.52148438 C-35.89695312 7.97234375 -35.89695312 7.97234375 -34.96191406 7.41210938 C-23.96205134 1.32707893 -12.31345037 -0.14337202 0 0 Z " transform="translate(555.8134765625,412.478515625)" style="fill: #1A1B1A;"></path><path d="M0 0 C1.93552734 -0.04930664 1.93552734 -0.04930664 3.91015625 -0.09960938 C15.76635094 -0.16527813 25.39354054 3.17007196 35.375 9.4375 C35.375 10.0975 35.375 10.7575 35.375 11.4375 C36.12136719 11.69144531 36.86773438 11.94539063 37.63671875 12.20703125 C47.7579287 16.75507852 53.46016514 30.44189634 57.5078125 40.15625 C60.43508643 48.45492949 60.53261037 56.59466079 60.5 65.3125 C60.50386719 66.36953125 60.50773438 67.4265625 60.51171875 68.515625 C60.51042969 69.51851562 60.50914062 70.52140625 60.5078125 71.5546875 C60.50668457 72.46847168 60.50555664 73.38225586 60.50439453 74.32373047 C60.375 76.4375 60.375 76.4375 59.375 77.4375 C56.66746274 77.56264411 53.98417896 77.62357128 51.27514648 77.64282227 C50.42643982 77.65272186 49.57773315 77.66262146 48.70330811 77.67282104 C45.88426551 77.70453247 43.06520602 77.72923139 40.24609375 77.75390625 C38.29695689 77.77446746 36.34782456 77.7954637 34.3986969 77.81687927 C29.25798207 77.87218598 24.11722643 77.9215572 18.97644043 77.96972656 C13.73490753 78.01987897 8.4934342 78.07559763 3.25195312 78.13085938 C-7.04031375 78.23854606 -17.33263225 78.33996753 -27.625 78.4375 C-27.31734628 79.88781216 -27.00571168 81.33728027 -26.69238281 82.78637695 C-26.51926575 83.59363724 -26.34614868 84.40089752 -26.16778564 85.23262024 C-24.62902719 91.48329656 -19.80673017 97.6679581 -14.625 101.4375 C-9.16514192 104.30001588 -4.80251208 104.90538626 1.3125 104.8125 C2.07240234 104.82410156 2.83230469 104.83570313 3.61523438 104.84765625 C12.01464358 104.80461914 18.28746699 102.22808018 24.375 96.4375 C24.705 95.7775 25.035 95.1175 25.375 94.4375 C35.935 94.4375 46.495 94.4375 57.375 94.4375 C55.62773852 104.92106885 49.3247887 114.38308 41.375 121.4375 C25.13069512 132.90406815 6.60825659 135.72757191 -12.88476562 133.13720703 C-26.00139725 130.59107552 -36.30471011 123.70830162 -45.625 114.4375 C-46.17800781 113.91929687 -46.73101563 113.40109375 -47.30078125 112.8671875 C-51.03927811 109.01784572 -53.38458822 104.42231476 -55.8125 99.6875 C-56.14588379 99.04417725 -56.47926758 98.40085449 -56.82275391 97.73803711 C-61.61974756 87.98592043 -63.16286186 78.560177 -63.0625 67.75 C-63.05565186 66.61240234 -63.04880371 65.47480469 -63.04174805 64.30273438 C-62.66090858 44.20810357 -56.01678373 28.36350709 -41.5625 14.3125 C-29.39276093 3.53598623 -15.9999196 0.07065715 0 0 Z " transform="translate(961.625,464.5625)" style="fill: #191919;"></path><path d="M0 0 C1.0374939 0.00303635 1.0374939 0.00303635 2.09594727 0.00613403 C2.80243408 0.00517731 3.5089209 0.00422058 4.23681641 0.00323486 C5.7331552 0.00255321 7.22949694 0.00440649 8.72583008 0.00857544 C11.02374884 0.01392396 13.32147213 0.00863003 15.61938477 0.00222778 C17.06990603 0.00288857 18.52042718 0.00416974 19.97094727 0.00613403 C20.66260986 0.0041098 21.35427246 0.00208557 22.06689453 0 C26.91849503 0.0239943 26.91849503 0.0239943 28.03344727 1.13894653 C28.15701805 3.07118648 28.21139184 5.00788452 28.23876953 6.94387817 C28.26868736 8.80569481 28.26868736 8.80569481 28.29920959 10.7051239 C28.31619519 12.06978223 28.33307396 13.4344419 28.34985352 14.79910278 C28.37041663 16.18773528 28.39141292 17.57636143 28.41282654 18.96498108 C28.46811373 22.62608712 28.51749352 26.28725026 28.56567383 29.94845581 C28.61584048 33.6819265 28.67155172 37.41531392 28.72680664 41.14871216 C28.83446945 48.47871983 28.9358962 55.80879658 29.03344727 63.13894653 C29.44019684 62.6530304 29.84694641 62.16711426 30.26602173 61.66647339 C30.80238251 61.03187195 31.33874329 60.39727051 31.89135742 59.74343872 C32.68710678 58.79800201 32.68710678 58.79800201 33.49893188 57.83346558 C35.28985463 55.85580361 37.03732326 54.60535959 39.40844727 53.38894653 C40.09680664 53.02285278 40.78516602 52.65675903 41.49438477 52.27957153 C49.0427905 48.88859542 54.64032901 47.66159019 62.90844727 47.76394653 C63.83786133 47.75234497 64.76727539 47.74074341 65.72485352 47.72879028 C78.77674848 47.78340072 88.13340243 52.26201743 97.36547852 61.46316528 C106.58193127 72.08175 108.2077166 84.64233174 108.14697266 98.21707153 C108.14711868 99.08630753 108.14726471 99.95554352 108.14741516 100.85112 C108.14672378 103.69708841 108.13896795 106.54298969 108.13110352 109.38894653 C108.12923658 111.37291427 108.12781398 113.35688247 108.1268158 115.34085083 C108.12301231 120.54234101 108.11320069 125.74380291 108.10211182 130.94528198 C108.09185092 136.26113503 108.08730818 141.57699267 108.08227539 146.89285278 C108.07157634 157.30822974 108.05452615 167.72358578 108.03344727 178.13894653 C103.35205473 178.16359941 98.67069967 178.18178392 93.98925781 178.19387817 C92.39550112 178.19891811 90.80174908 178.20575003 89.20800781 178.21438599 C86.92194474 178.22646652 84.63594259 178.23217808 82.34985352 178.23660278 C81.63318008 178.24176407 80.91650665 178.24692535 80.17811584 178.25224304 C78.46281054 178.25243916 76.7476346 178.20086661 75.03344727 178.13894653 C73.05540158 176.16090085 73.87945204 172.25542162 73.87573242 169.54910278 C73.8706517 168.75386703 73.86557098 167.95863129 73.8603363 167.13929749 C73.8496062 165.40522374 73.84099646 163.67113592 73.83421707 161.93704224 C73.82244885 159.18721249 73.80299756 156.43754129 73.78109741 153.68777466 C73.71943926 145.86670263 73.66557821 138.04564291 73.63208008 130.22439575 C73.61105427 125.44445224 73.57567772 120.66479118 73.53132248 115.88500977 C73.51721343 114.06711164 73.50845161 112.24916347 73.5052681 110.43121338 C73.50032197 107.87516082 73.47706666 105.31984721 73.44995117 102.76394653 C73.45295731 102.02176376 73.45596344 101.27958099 73.45906067 100.51490784 C73.36229026 94.32726811 72.250206 87.91997113 68.31469727 82.98269653 C67.43297852 82.31754028 67.43297852 82.31754028 66.53344727 81.63894653 C65.94563477 81.17488403 65.35782227 80.71082153 64.75219727 80.23269653 C59.00993116 76.5785272 50.59236903 77.75881256 44.03344727 78.13894653 C41.02718773 78.84098135 38.82573334 79.77017885 36.03344727 81.13894653 C35.04344727 81.46894653 34.05344727 81.79894653 33.03344727 82.13894653 C31.86391311 84.5627773 31.86391311 84.5627773 31.03344727 87.13894653 C30.70344727 87.79894653 30.37344727 88.45894653 30.03344727 89.13894653 C28.54275248 98.72888181 28.81458876 108.59600645 28.71704102 118.27566528 C28.69642754 120.00872747 28.67543006 121.74178513 28.65406799 123.47483826 C28.59930037 128.00055231 28.54969445 132.52630825 28.5012207 137.05209351 C28.45067133 141.68459733 28.39516115 146.31704155 28.34008789 150.94949341 C28.23306195 160.01259333 28.13149747 169.07574537 28.03344727 178.13894653 C23.35205473 178.16359941 18.67069967 178.18178392 13.98925781 178.19387817 C12.39550112 178.19891811 10.80174908 178.20575003 9.20800781 178.21438599 C6.92194474 178.22646652 4.63594259 178.23217808 2.34985352 178.23660278 C1.63318008 178.24176407 0.91650665 178.24692535 0.17811584 178.25224304 C-1.53718946 178.25243916 -3.2523654 178.20086661 -4.96655273 178.13894653 C-6.86743677 176.23806249 -6.09280346 172.86247008 -6.09353638 170.34378052 C-6.09509637 169.62492644 -6.09665636 168.90607237 -6.09826362 168.16543484 C-6.10227612 165.73861626 -6.09908303 163.31185941 -6.09594727 160.88504028 C-6.0973012 159.15254683 -6.09908108 157.42005366 -6.10125732 155.68756104 C-6.10583264 150.9686882 -6.1040417 146.24983713 -6.10087824 141.5309639 C-6.09835514 136.60398549 -6.10069203 131.677009 -6.1022644 126.75003052 C-6.10408625 118.47439233 -6.10167941 110.19876306 -6.09692383 101.92312622 C-6.09148118 92.34089793 -6.09324383 82.75869091 -6.09875023 73.17646313 C-6.10328095 64.96502849 -6.10393212 56.75360028 -6.10131156 48.5421648 C-6.09974856 43.6309709 -6.09955567 38.71978702 -6.10284805 33.80859375 C-6.10572616 29.19252394 -6.10375219 24.5764817 -6.0979538 19.96041489 C-6.09662587 18.26119915 -6.09702086 16.56198111 -6.09921646 14.86276627 C-6.10192671 12.55318318 -6.09854841 10.24368983 -6.09353638 7.93411255 C-6.09315935 6.63844864 -6.09278233 5.34278473 -6.09239388 4.00785828 C-5.88456502 -0.73019997 -4.29788678 0.02125582 0 0 Z " transform="translate(775.966552734375,416.8610534667969)" style="fill: #1C1C1C;"></path><path d="M0 0 C1.64742187 -0.0299707 1.64742187 -0.0299707 3.328125 -0.06054688 C17.69975864 -0.05203287 29.46809801 5.94274451 39.8125 15.75 C48.26820804 24.64437626 53.22867811 34.2159257 53 46.4375 C48.45943197 46.69950753 43.92080597 46.85892326 39.375 47 C38.08980469 47.07541016 36.80460938 47.15082031 35.48046875 47.22851562 C26.11914416 47.44678485 26.11914416 47.44678485 22.84619141 44.49511719 C21.32896378 42.2014069 20.15966862 39.9260464 19 37.4375 C14.49930688 31.98929253 9.78798833 29.87328627 2.91015625 29.08203125 C-4.57897875 28.75869637 -10.14390056 29.57717456 -16 34.4375 C-24.82572236 43.1840679 -27.21339472 55.53775707 -27.3125 67.5 C-27.35108766 78.71936205 -25.32319331 88.91670689 -17.25 97.2421875 C-11.84856112 102.32713582 -6.94979504 105.00661327 0.4375 105.8125 C7.43879653 105.07552142 14.3907831 103.11249928 19 97.4375 C19.35698975 96.62821045 19.71397949 95.8189209 20.08178711 94.98510742 C21.43118889 91.94654228 22.65697806 89.8120868 25 87.4375 C29.82963647 86.17348914 34.42442122 86.48974411 39.375 86.8125 C40.68339844 86.85761719 41.99179687 86.90273438 43.33984375 86.94921875 C46.56457191 87.06690956 49.77993695 87.23104498 53 87.4375 C55.12679769 94.4787195 50.46062919 102.41367929 47.38671875 108.77734375 C40.77923163 120.82271683 31.96451171 126.76127238 19.18359375 131.4765625 C2.16296472 136.32664853 -16.35832847 135.06974845 -31.93359375 126.8984375 C-44.37981804 119.61368486 -52.80912389 109.56976203 -57.6875 96.125 C-57.99494141 95.32126953 -58.30238281 94.51753906 -58.61914062 93.68945312 C-65.49908568 74.97660477 -63.96146383 51.21733344 -55.8125 33.25 C-47.51265491 18.04205214 -35.78037397 6.77682286 -18.99609375 1.828125 C-12.63993976 0.15023675 -6.54544323 -0.04225345 0 0 Z " transform="translate(699,464.5625)" style="fill: #1A1A1A;"></path><path d="M0 0 C6.2863747 1.8122882 10.15791793 7.60640655 13.6640625 12.8125 C15.12344598 17.3852349 15.62190791 21.26075153 13.79296875 25.72265625 C10.92419516 30.71571201 6.98882586 34.55192504 2.8671875 38.5234375 C0.78868636 40.56610241 -1.12790656 42.66354723 -3.0234375 44.875 C-5.22571897 47.44263692 -7.48511033 49.87957643 -9.8984375 52.25 C-12.22966782 54.54015137 -14.40812314 56.88455601 -16.5234375 59.375 C-19.8035905 63.18947656 -23.3239193 66.71536133 -26.8984375 70.25 C-30.9255617 74.23697172 -34.82703337 78.24966789 -38.5078125 82.5625 C-41.19346964 85.66987189 -43.94530249 88.71380043 -46.7109375 91.75 C-47.23953369 92.33910156 -47.76812988 92.92820312 -48.31274414 93.53515625 C-49.63342157 94.97892056 -51.01169433 96.36956977 -52.3984375 97.75 C-53.0584375 97.75 -53.7184375 97.75 -54.3984375 97.75 C-54.3984375 98.41 -54.3984375 99.07 -54.3984375 99.75 C-56.02692328 101.47718189 -57.68100751 103.1147644 -59.3984375 104.75 C-63.00253513 108.25992881 -66.49443438 111.80708665 -69.7734375 115.625 C-83.08816964 130.9743429 -83.08816964 130.9743429 -90.484375 132.0546875 C-96.95166122 132.42992254 -102.22938318 130.54604046 -107.13037109 126.22192383 C-108.77884 124.50478953 -110.34875893 122.74417015 -111.8984375 120.9375 C-115.79421543 116.48310055 -119.78003312 112.46203303 -124.27880859 108.61401367 C-128.17503712 105.18764823 -131.80282219 101.48923168 -135.4609375 97.8125 C-136.22470703 97.05259766 -136.98847656 96.29269531 -137.77539062 95.50976562 C-153.4426435 79.81570821 -153.4426435 79.81570821 -155.0234375 71.4375 C-153.92637306 64.9648198 -149.47022331 60.67380111 -144.7734375 56.3125 C-140.25285216 53.3384307 -136.98727291 52.17395473 -131.46972656 53.10839844 C-123.05472446 55.71502568 -116.20267691 64.67277987 -110.16870117 70.77392578 C-108.445764 72.51533619 -106.71473995 74.24839469 -104.98242188 75.98046875 C-103.88233593 77.08546325 -102.78270931 78.19091527 -101.68359375 79.296875 C-101.16700699 79.81457458 -100.65042023 80.33227417 -100.11817932 80.86566162 C-96.51459477 84.51768545 -96.51459477 84.51768545 -95.3984375 86.75 C-90.64968482 86.6060984 -88.53535073 84.27016779 -85.4375 81.02734375 C-84.26681341 79.71985279 -83.10383441 78.40515996 -81.96386719 77.07080078 C-76.25100323 70.41583301 -70.02590671 64.32332788 -63.78125 58.171875 C-59.38691154 53.8176065 -55.14134368 49.42002877 -51.11425781 44.72412109 C-47.94031538 41.07237116 -44.59696406 37.57764765 -41.2734375 34.0625 C-40.23896484 32.96325195 -40.23896484 32.96325195 -39.18359375 31.84179688 C-36.3601872 28.84833812 -33.5272735 25.87847461 -30.61328125 22.97265625 C-28.65626353 21.00873547 -26.8628463 19.00023584 -25.0859375 16.875 C-22.05831632 13.38007207 -18.84303446 10.31889441 -15.29296875 7.359375 C-13.41302274 5.81693427 -13.41302274 5.81693427 -11.91015625 4.203125 C-8.28600586 0.56876574 -4.9602175 -0.23976882 0 0 Z " transform="translate(350.3984375,470.25)" style="fill: #FCFDFE;"></path><path d="M0 0 C0.72156784 -0.0033284 1.44313568 -0.0066568 2.18656921 -0.01008606 C3.71739055 -0.01515928 5.248223 -0.01749426 6.77905273 -0.01733398 C9.11656104 -0.01951246 11.45359142 -0.03764119 13.79101562 -0.05664062 C15.27734213 -0.05957611 16.76367089 -0.06155987 18.25 -0.0625 C18.94805252 -0.06968552 19.64610504 -0.07687103 20.36531067 -0.08427429 C24.11524454 -0.06671807 26.5645954 0.36783911 29.82421875 2.16796875 C29.84754529 24.96786216 29.86519672 47.76775361 29.87603092 70.56765652 C29.8811944 81.15326269 29.88823808 91.73886147 29.8996582 102.32446289 C29.90960346 111.54734634 29.9160718 120.77022444 29.91830724 129.9931131 C29.91961462 134.87973287 29.92270217 139.76633732 29.92994881 144.65295219 C29.93670653 149.24684336 29.93883622 153.8407128 29.93732643 158.43460846 C29.93760287 160.12576223 29.93960946 161.81691669 29.94342422 163.50806618 C29.94835762 165.80675051 29.94721837 168.10535145 29.94447327 170.40403748 C29.94539506 171.69362586 29.94631685 172.98321424 29.94726658 174.31188107 C29.82421875 177.16796875 29.82421875 177.16796875 28.82421875 178.16796875 C26.0852779 178.25655521 23.37168605 178.28320354 20.6328125 178.265625 C19.81297379 178.26421005 18.99313507 178.2627951 18.14845276 178.26133728 C15.51950493 178.25572164 12.89064102 178.24316654 10.26171875 178.23046875 C8.48372518 178.22545576 6.70573029 178.22089251 4.92773438 178.21679688 C0.5598633 178.20574714 -3.80794473 178.18847206 -8.17578125 178.16796875 C-8.19910772 155.10730769 -8.21675919 132.04664857 -8.22759342 108.98597813 C-8.23275692 98.27930368 -8.23980062 87.57263655 -8.2512207 76.8659668 C-8.26116592 67.53760792 -8.26763429 58.20925434 -8.26986974 48.88089031 C-8.27117713 43.93837926 -8.27426473 38.99588336 -8.28151131 34.05337715 C-8.28826896 29.4069564 -8.29039873 24.76055713 -8.28888893 20.11413193 C-8.28916537 18.40362748 -8.291172 16.69312236 -8.29498672 14.98262215 C-8.29992 12.65766376 -8.29878091 10.33278783 -8.29603577 8.00782776 C-8.29695756 6.70349069 -8.29787935 5.39915361 -8.29882908 4.05529118 C-8.066439 -1.39775176 -4.48226793 0.00708393 0 0 Z " transform="translate(1362.17578125,416.83203125)" style="fill: #1F1F1F;"></path><path d="M0 0 C0.7101123 0.00644531 1.42022461 0.01289063 2.15185547 0.01953125 C9.40831305 0.27152612 13.81627699 2.21354727 18.98046875 7.15625 C27.86830751 17.51442258 28.13345552 31.17922019 27.43457031 44.11865234 C26.58244692 55.11284749 24.06086667 64.32295159 15.75 71.875 C11.09182285 75.80808354 6.79000351 76.77822432 0.75 76.75 C-0.3534375 76.75515625 -1.456875 76.7603125 -2.59375 76.765625 C-7.77198107 76.32983328 -11.02118026 74.59548569 -14.875 71.1875 C-15.53757812 70.61386719 -16.20015625 70.04023437 -16.8828125 69.44921875 C-25.78969315 60.15103163 -26.35383634 47.09737986 -26.21533203 34.96264648 C-25.83373874 22.9187319 -23.61951461 14.47817008 -15.06640625 5.5234375 C-10.18493548 1.25935342 -6.47044391 -0.06082673 0 0 Z " transform="translate(1095.75,492.5)" style="fill: #FCFCFC;"></path><path d="M0 0 C6.19258029 2.25276575 9.64575223 6.51123092 13 12 C13.9219195 14.7657585 14.14038598 16.48553378 14.17700195 19.34448242 C14.19625481 20.65681099 14.19625481 20.65681099 14.21589661 21.99565125 C14.22328354 22.93939102 14.23067047 23.8831308 14.23828125 24.85546875 C14.246353 25.83107254 14.25442474 26.80667633 14.26274109 27.81184387 C14.27657531 29.8788577 14.28730042 31.9458943 14.29516602 34.01293945 C14.31233981 37.15816208 14.3562277 40.30232273 14.40039062 43.44726562 C14.41052143 45.45832563 14.41903632 47.46939454 14.42578125 49.48046875 C14.44328934 50.41408737 14.46079742 51.34770599 14.47883606 52.30961609 C14.45566966 59.36228964 12.90331618 64.709575 8.18359375 70.05859375 C7.60738281 70.51363281 7.03117187 70.96867187 6.4375 71.4375 C5.85871094 71.91058594 5.27992188 72.38367188 4.68359375 72.87109375 C0.51237158 75.66803855 -4.17771127 75.56353958 -9 75 C-15.79759205 72.72040348 -20.37212395 67.16646255 -23.55786133 60.96972656 C-25.43966055 56.48207237 -25.4500651 52.22128918 -25.43359375 47.41015625 C-25.4388356 46.50680038 -25.44407745 45.60344452 -25.44947815 44.67271423 C-25.45587349 42.77083357 -25.45459375 40.86891322 -25.44604492 38.96704102 C-25.43753474 36.07430869 -25.46633099 33.18355336 -25.49804688 30.29101562 C-25.49965926 28.43489642 -25.49908064 26.57877375 -25.49609375 24.72265625 C-25.50732773 23.86720718 -25.51856171 23.01175812 -25.53013611 22.13038635 C-25.45245284 15.3592655 -23.72535304 10.03008661 -19.1484375 4.94140625 C-18.56320313 4.48636719 -17.97796875 4.03132813 -17.375 3.5625 C-16.78460938 3.08941406 -16.19421875 2.61632812 -15.5859375 2.12890625 C-10.94535631 -1.1743646 -5.47132236 -0.59724598 0 0 Z " transform="translate(206,320)" style="fill: #0F92F7;"></path><path d="M0 0 C5.19039543 2.97967145 8.81220493 7.87411478 10.6875 13.5 C10.80292396 14.97058923 10.86635045 16.44560102 10.89624023 17.92041016 C10.92517616 19.25792831 10.92517616 19.25792831 10.95469666 20.62246704 C11.01271388 24.71001908 11.06174445 28.79739907 11.0925293 32.88525391 C11.11407041 35.03450629 11.14812672 37.18367186 11.19506836 39.33251953 C11.26236364 42.4434294 11.28957955 45.55252554 11.30859375 48.6640625 C11.33642441 49.61439362 11.36425507 50.56472473 11.39292908 51.54385376 C11.37162721 58.53511934 9.49193504 63.34126545 4.6875 68.5 C-0.10305546 71.70000394 -5.19258735 73.2997501 -10.9765625 73.015625 C-16.7993595 71.73032533 -22.4216532 68.27975342 -25.875 63.375 C-27.78602679 59.55294642 -28.43206203 56.40000501 -28.50537109 52.1496582 C-28.52143402 51.29809647 -28.53749695 50.44653473 -28.55404663 49.56916809 C-28.59887859 45.67738971 -28.63957005 41.78577562 -28.66259766 37.89379883 C-28.67912781 35.84843545 -28.70637881 33.80312914 -28.74462891 31.75805664 C-28.79973128 28.79282995 -28.82132342 25.82895275 -28.8359375 22.86328125 C-28.85860687 21.95983475 -28.88127625 21.05638824 -28.90463257 20.12556458 C-28.88306669 13.56264158 -27.27529323 8.77730819 -23.3125 3.5 C-16.70466539 -2.61602368 -8.2701801 -3.52629094 0 0 Z " transform="translate(355.3125,321.5)" style="fill: #1092F7;"></path><path d="M0 0 C0.99 0 1.98 0 3 0 C6.7964735 11.09258664 10.58799489 22.18684325 14.3694458 33.28456116 C15.69351657 37.17016938 17.01789414 41.05564807 18.35009766 44.93847656 C19.36376984 47.89469428 20.37082561 50.85304632 21.375 53.8125 C21.6541626 54.62033936 21.9333252 55.42817871 22.22094727 56.26049805 C23.38976221 59.72992333 24 62.29328329 24 66 C9.15 66 -5.7 66 -21 66 C-18.12077802 51.60389011 -12.52660276 37.60904917 -7.75 23.75 C-6.79413778 20.97452722 -5.83895336 18.19882972 -4.88580322 15.42242432 C-4.298685 13.71235155 -3.71001782 12.00280954 -3.11956787 10.29388428 C-2.72345306 9.14052582 -2.72345306 9.14052582 -2.31933594 7.96386719 C-2.08792908 7.29264832 -1.85652222 6.62142944 -1.61810303 5.92987061 C-0.99012322 3.96916226 -0.4771158 2.00226832 0 0 Z " transform="translate(1251,458)" style="fill: #F8F8F8;"></path><path d="M0 0 C6.57732181 4.99389248 10.50866323 11.88537345 12 20 C12 22.31 12 24.62 12 27 C-6.15 27 -24.3 27 -43 27 C-41.62592772 17.38149401 -38.79775084 7.85819438 -31.0234375 1.34375 C-22.30155831 -4.44838599 -9.12982314 -5.65083767 0 0 Z " transform="translate(976,493)" style="fill: #FCFCFC;"></path><path d="M0 0 C1.3488873 0.00025096 2.69778106 0.00580724 4.04663086 0.01586914 C5.99194702 0.01961548 5.99194702 0.01961548 7.9765625 0.0234375 C10.46884399 0.03709351 10.46884399 0.03709351 13.01147461 0.05102539 C18.27084961 0.07165039 23.53022461 0.09227539 28.94897461 0.11352539 C28.94897461 17.60352539 28.94897461 35.09352539 28.94897461 53.11352539 C28.61897461 53.11352539 28.28897461 53.11352539 27.94897461 53.11352539 C27.94897461 36.28352539 27.94897461 19.45352539 27.94897461 2.11352539 C18.04897461 2.11352539 8.14897461 2.11352539 -2.05102539 2.11352539 C-2.05102539 59.86352539 -2.05102539 117.61352539 -2.05102539 177.11352539 C-2.71102539 177.11352539 -3.37102539 177.11352539 -4.05102539 177.11352539 C-4.0743519 154.18324816 -4.09200334 131.25297287 -4.10283756 108.3226862 C-4.10800105 97.67654589 -4.11504474 87.03041293 -4.12646484 76.38427734 C-4.13641008 67.10865618 -4.14287843 57.83304034 -4.14511389 48.557414 C-4.14642127 43.64284858 -4.14950884 38.72829841 -4.15675545 33.81373787 C-4.16351314 29.19358191 -4.16564287 24.57344756 -4.16413307 19.95328712 C-4.16440951 18.25245802 -4.16641612 16.55162823 -4.17023087 14.85080338 C-4.1751642 12.53898202 -4.17402503 10.22724358 -4.17127991 7.91542053 C-4.1722017 6.6184578 -4.17312349 5.32149508 -4.17407322 3.98523045 C-4.00433858 0.02394305 -3.98966287 0.14845109 0 0 Z " transform="translate(774.051025390625,416.886474609375)" style="fill: #030303;"></path><path d="M0 0 C2.475 0.495 2.475 0.495 5 1 C5 58.75 5 116.5 5 176 C3.68 176 2.36 176 1 176 C1 175.34 1 174.68 1 174 C1.66 174 2.32 174 3 174 C3 116.91 3 59.82 3 1 C2.01 0.67 1.02 0.34 0 0 Z " transform="translate(1152,418)" style="fill: #141414;"></path><path d="M0 0 C0.33 0 0.66 0 1 0 C1 27.06 1 54.12 1 82 C0.67 82 0.34 82 0 82 C-0.33 78.7 -0.66 75.4 -1 72 C-1.33 72 -1.66 72 -2 72 C-2 55.83 -2 39.66 -2 23 C-1.67 23 -1.34 23 -1 23 C-0.67 15.41 -0.34 7.82 0 0 Z " transform="translate(849,511)" style="fill: #CDCDCD;"></path><path d="M0 0 C10.56 0 21.12 0 32 0 C32 0.66 32 1.32 32 2 C22.1 2 12.2 2 2 2 C2 4.31 2 6.62 2 9 C1.01 9.495 1.01 9.495 0 10 C0 6.7 0 3.4 0 0 Z " transform="translate(491,540)" style="fill: #060606;"></path><path d="M0 0 C1 3 1 3 0.1015625 5.1640625 C-5.2403369 14.06722817 -11.57652789 21.38851365 -21 26 C-21 25.01 -21 24.02 -21 23 C-19.27734375 21.45703125 -19.27734375 21.45703125 -16.9375 19.8125 C-9.62269852 14.3464945 -4.54353175 7.8726633 0 0 Z " transform="translate(618,565)" style="fill: #7D7D7C;"></path><path d="M0 0 C5.19544222 0.53014716 9.2964651 1.73533505 14 4 C14.86625 4.350625 15.7325 4.70125 16.625 5.0625 C21.4786397 9.02204818 23.70465528 14.31778774 24.3828125 20.4765625 C24.43305399 23.71354966 24.44291194 26.7923851 24 30 C23.34 30.66 22.68 31.32 22 32 C22.05800781 31.17757812 22.11601563 30.35515625 22.17578125 29.5078125 C22.49937478 21.50118402 21.78759558 15.58294393 17 9 C12.23834511 4.69183605 6.01097344 3.01078827 0 1 C0 0.67 0 0.34 0 0 Z " transform="translate(565,523)" style="fill: #0B0B0B;"></path><path d="M0 0 C2.36283407 2.28899551 4.62927342 4.55126986 6.7265625 7.08984375 C12.86424032 14.47778928 19.97027189 19.63215546 29 23 C28.67 23.66 28.34 24.32 28 25 C17.37139462 22.48269873 7.16811388 13.29394478 1.24609375 4.3515625 C0 2 0 2 0 0 Z " transform="translate(909,568)" style="fill: #101010;"></path><path d="M0 0 C2.00751011 3.01126517 2.7526709 5.30309067 3.75 8.75 C6.35087216 16.77582567 10.74938071 22.22883982 18.25 26.1875 C18.8275 26.455625 19.405 26.72375 20 27 C14.62938304 26.78079114 11.5963467 25.62374964 7.640625 21.953125 C2.2402107 15.52406035 -0.15594985 8.2653419 0 0 Z " transform="translate(1070,542)" style="fill: #6D6E6D;"></path><path d="M0 0 C3.3007924 1.10026413 3.92480282 1.82709337 6.0625 4.4375 C9.01991517 7.89830499 12.0430839 11.26967488 15.1875 14.5625 C16.00605469 15.43003906 16.82460937 16.29757812 17.66796875 17.19140625 C19.79848791 19.24578076 19.79848791 19.24578076 22.19921875 18.90625 C24.53532668 17.73059482 25.50416799 16.10776328 27 14 C27.66 14 28.32 14 29 14 C27.55754029 17.36573933 25.916532 19.75010389 23 22 C20.14980216 21.78566512 18.51751854 21.4630429 16.3671875 19.5390625 C15.87476563 18.90742187 15.38234375 18.27578125 14.875 17.625 C11.37050266 13.33568175 7.55051023 9.50816701 3.55615234 5.68212891 C2.33472938 4.49061137 1.16269123 3.24889438 0 2 C0 1.34 0 0.68 0 0 Z " transform="translate(236,536)" style="fill: #0E6FEB;"></path><path d="M0 0 C0.66 0 1.32 0 2 0 C2.02505615 0.66008057 2.0501123 1.32016113 2.07592773 2.00024414 C2.19271752 5.02115369 2.31506446 8.04181422 2.4375 11.0625 C2.47681641 12.10083984 2.51613281 13.13917969 2.55664062 14.20898438 C2.77666344 19.54030641 3.1116184 24.73689893 4 30 C1.44166778 27.77536328 0.60701473 26.31336432 0 23 C-0.07991104 21.19418245 -0.10769823 19.38568191 -0.09765625 17.578125 C-0.09443359 16.55332031 -0.09121094 15.52851563 -0.08789062 14.47265625 C-0.07951172 13.40917969 -0.07113281 12.34570312 -0.0625 11.25 C-0.05798828 10.17105469 -0.05347656 9.09210938 -0.04882812 7.98046875 C-0.03705727 5.32025617 -0.02061399 2.66015635 0 0 Z " transform="translate(179,354)" style="fill: #51F556;"></path><path d="M0 0 C5.48864146 4.50852691 7.83901818 11.16643606 9 18 C9.07700286 19.69257245 9.10805067 21.38773999 9.09765625 23.08203125 C9.09443359 24.01337891 9.09121094 24.94472656 9.08789062 25.90429688 C9.07951172 26.86400391 9.07113281 27.82371094 9.0625 28.8125 C9.05798828 29.79154297 9.05347656 30.77058594 9.04882812 31.77929688 C9.03708684 34.18626111 9.02066419 36.59309857 9 39 C8.67 39 8.34 39 8 39 C7.96132812 37.16888672 7.96132812 37.16888672 7.921875 35.30078125 C7.69053552 19.23857252 7.69053552 19.23857252 1.3671875 4.83984375 C0 3 0 3 0 0 Z " transform="translate(1115,499)" style="fill: #090909;"></path><path d="M0 0 C-0.65226563 0.38671875 -1.30453125 0.7734375 -1.9765625 1.171875 C-13.45848041 7.06678024 -13.45848041 7.06678024 -22 16 C-22.99 15.67 -23.98 15.34 -25 15 C-8.45814258 -3.02076521 -8.45814258 -3.02076521 0 0 Z " transform="translate(939,470)" style="fill: #0F0F0F;"></path><path d="M0 0 C2.72311239 2.50459103 4.66411995 5.32961513 6.75 8.375 C10.08727297 13.04100202 13.11031848 16.04581741 18 19 C15 20 15 20 13.203125 19.171875 C7.25129381 14.83894189 3.30438114 9.57778371 0 3 C0 2.01 0 1.02 0 0 Z " transform="translate(496,566)" style="fill: #0F0F0F;"></path><path d="M0 0 C3.58425201 0.08097224 7.16681439 0.19380698 10.75 0.3125 C12.27367187 0.34633789 12.27367187 0.34633789 13.828125 0.38085938 C14.8078125 0.41630859 15.7875 0.45175781 16.796875 0.48828125 C17.69760742 0.51446533 18.59833984 0.54064941 19.52636719 0.56762695 C22.4011643 1.07012061 23.82804998 2.09621932 26 4 C22.41694008 4.11627503 18.83436583 4.1872736 15.25 4.25 C14.23421875 4.28351562 13.2184375 4.31703125 12.171875 4.3515625 C4.60499931 4.45112665 4.60499931 4.45112665 1.296875 1.984375 C0.86890625 1.32953125 0.4409375 0.6746875 0 0 Z " transform="translate(544,566)" style="fill: #3E3E3E;"></path><path d="M0 0 C0.33 0 0.66 0 1 0 C1.04898438 0.60328125 1.09796875 1.2065625 1.1484375 1.828125 C1.22320312 2.62734375 1.29796875 3.4265625 1.375 4.25 C1.44460937 5.03890625 1.51421875 5.8278125 1.5859375 6.640625 C2.02541008 9.14478952 2.61427885 10.86957156 4 13 C4.99 13.33 5.98 13.66 7 14 C7.33 14.99 7.66 15.98 8 17 C8.66 17 9.32 17 10 17 C10.33 18.32 10.66 19.64 11 21 C7.58864174 20.7473068 6.78062489 19.76495524 4.375 17.1875 C1.09933055 12.79120679 -0.27029943 10.27137831 -0.125 4.75 C-0.09792969 3.41195313 -0.09792969 3.41195313 -0.0703125 2.046875 C-0.04710937 1.37140625 -0.02390625 0.6959375 0 0 Z " transform="translate(182,370)" style="fill: #0B85F6;"></path><path d="M0 0 C0 0.66 0 1.32 0 2 C-1.31677734 1.76990234 -1.31677734 1.76990234 -2.66015625 1.53515625 C-8.54875727 0.69392753 -14.50008969 0.63508976 -20.4375 0.4375 C-21.64599609 0.39431641 -22.85449219 0.35113281 -24.09960938 0.30664062 C-27.06630606 0.20110596 -30.03307902 0.09899286 -33 0 C-33 -0.33 -33 -0.66 -33 -1 C-28.94371612 -1.19282973 -24.887077 -1.37145834 -20.82958984 -1.53710938 C-19.45018879 -1.59540761 -18.07094424 -1.65754312 -16.69189453 -1.72363281 C-14.70651227 -1.81810666 -12.7204313 -1.89751548 -10.734375 -1.9765625 C-8.94338379 -2.05511475 -8.94338379 -2.05511475 -7.11621094 -2.13525391 C-4.09338565 -2.00405325 -2.52131196 -1.59901387 0 0 Z " transform="translate(1337,593)" style="fill: #131312;"></path><path d="M0 0 C0.85573613 2.38346137 1.22877115 3.50485148 0.14453125 5.8515625 C-4.55737705 12.11158117 -4.55737705 12.11158117 -8 13 C-9.34198878 12.70342789 -10.67747917 12.3739352 -12 12 C-11.44570313 11.69707031 -10.89140625 11.39414062 -10.3203125 11.08203125 C-5.62776126 8.44119287 -5.62776126 8.44119287 -2.5 4.1875 C-2.335 3.465625 -2.17 2.74375 -2 2 C-1.34 2 -0.68 2 0 2 C0 1.34 0 0.68 0 0 Z " transform="translate(364,379)" style="fill: #0C83F6;"></path><path d="M0 0 C0.66 0.66 1.32 1.32 2 2 C1.525625 2.763125 1.05125 3.52625 0.5625 4.3125 C-1.55021278 7.94636598 -2.1223583 10.55727728 -2.0625 14.6875 C-2.05347656 15.49574219 -2.04445313 16.30398438 -2.03515625 17.13671875 C-2.02355469 17.75160156 -2.01195312 18.36648438 -2 19 C-2.66 19.33 -3.32 19.66 -4 20 C-4.10854617 17.60293877 -4.18753157 15.21084162 -4.25 12.8125 C-4.28351562 12.13896484 -4.31703125 11.46542969 -4.3515625 10.77148438 C-4.42503051 7.00624873 -4.11393243 5.16891146 -1.984375 2.01171875 C-1.32953125 1.34785156 -0.6746875 0.68398438 0 0 Z " transform="translate(532,451)" style="fill: #737473;"></path><path d="M0 0 C0.33 0.66 0.66 1.32 1 2 C0.25234375 2.45890625 -0.4953125 2.9178125 -1.265625 3.390625 C-2.25046875 4.00421875 -3.2353125 4.6178125 -4.25 5.25 C-5.22453125 5.85328125 -6.1990625 6.4565625 -7.203125 7.078125 C-9.79705245 8.86054442 -11.86377619 10.70101628 -14 13 C-14.66 12.67 -15.32 12.34 -16 12 C-11.23436843 6.68271976 -6.40212879 3.15025385 0 0 Z " transform="translate(521,420)" style="fill: #090909;"></path><path d="M0 0 C1.95543816 1.36030481 2.88076499 2.52000266 3.45703125 4.83984375 C3.97406271 8.541789 4.06887506 11.38040035 3 15 C2.29911844 13.25531628 1.61475991 11.50398839 0.9375 9.75 C0.55464844 8.77546875 0.17179688 7.8009375 -0.22265625 6.796875 C-1.01113787 3.95992605 -1.02437812 2.70590448 0 0 Z " transform="translate(612,438)" style="fill: #262626;"></path><path d="M0 0 C4.75 0.75 4.75 0.75 7 3 C7 4.32 7 5.64 7 7 C6.01 7.33 5.02 7.66 4 8 C0 3.375 0 3.375 0 0 Z " transform="translate(329,381)" style="fill: #0C86F6;"></path><path d="M0 0 C4.92178161 0.43427485 7.45459675 2.69095697 11 6 C13 9 13 9 12.625 11.1875 C12.41875 11.785625 12.2125 12.38375 12 13 C11.67386719 12.4225 11.34773438 11.845 11.01171875 11.25 C10.57472656 10.5075 10.13773437 9.765 9.6875 9 C9.04361328 7.88625 9.04361328 7.88625 8.38671875 6.75 C7.92910156 6.1725 7.47148437 5.595 7 5 C6.01 5 5.02 5 4 5 C1.8125 2.5 1.8125 2.5 0 0 Z " transform="translate(351,321)" style="fill: #0D83F8;"></path><path d="M0 0 C0.66 0.33 1.32 0.66 2 1 C1.2575 1.825 0.515 2.65 -0.25 3.5 C-3.22452873 7.04231626 -5.05293532 10.81741662 -7 15 C-7.33 15 -7.66 15 -8 15 C-7.42032462 9.08731112 -6.48973483 5.06292314 -1.8125 1.1875 C-1.214375 0.795625 -0.61625 0.40375 0 0 Z " transform="translate(813,496)" style="fill: #8F8F8E;"></path><path d="M0 0 C0.99 0.33 1.98 0.66 3 1 C2.34 1 1.68 1 1 1 C0.91492188 1.58265625 0.82984375 2.1653125 0.7421875 2.765625 C-0.21106261 5.63540954 -1.59195626 6.79310536 -3.875 8.75 C-4.57367188 9.36359375 -5.27234375 9.9771875 -5.9921875 10.609375 C-8 12 -8 12 -11 12 C-10.54109375 11.55269531 -10.0821875 11.10539063 -9.609375 10.64453125 C-6.16447701 7.25029352 -2.92744915 3.86423288 0 0 Z " transform="translate(286,579)" style="fill: #0D6BEC;"></path><path d="M0 0 C0.66 0.33 1.32 0.66 2 1 C-0.07143201 5.03384128 -1.96615872 6.92856799 -6 9 C-6 6 -6 6 -4.6875 4.39453125 C-4.130625 3.87246094 -3.57375 3.35039063 -3 2.8125 C-2.443125 2.28269531 -1.88625 1.75289062 -1.3125 1.20703125 C-0.6628125 0.60955078 -0.6628125 0.60955078 0 0 Z " transform="translate(274,592)" style="fill: #177CEB;"></path><path d="M0 0 C-1.51671964 4.55015893 -5.16891053 6.50057264 -9 9 C-9.66 8.34 -10.32 7.68 -11 7 C-9.54634731 5.82750647 -8.08692581 4.66216184 -6.625 3.5 C-5.40683594 2.52546875 -5.40683594 2.52546875 -4.1640625 1.53125 C-2 0 -2 0 0 0 Z " transform="translate(607,582)" style="fill: #8F8F8E;"></path><path d="M0 0 C4.25209792 4.12324647 8.13635705 8.51282966 12 13 C9 13 9 13 6.9921875 11.171875 C6.29351563 10.37265625 5.59484375 9.5734375 4.875 8.75 C4.17117188 7.96109375 3.46734375 7.1721875 2.7421875 6.359375 C1.09050945 4.12257334 0.41046855 2.71158014 0 0 Z " transform="translate(909,568)" style="fill: #070707;"></path><path d="M0 0 C0.33 0 0.66 0 1 0 C1.33 5.28 1.66 10.56 2 16 C1.34 16 0.68 16 0 16 C-0.91397824 10.31302429 -0.91397824 5.68697571 0 0 Z " transform="translate(621,539)" style="fill: #282828;"></path><path d="M0 0 C3.66060821 0.58536753 5.54535164 2.083239 8.25 4.5625 C8.95640625 5.20316406 9.6628125 5.84382813 10.390625 6.50390625 C10.92171875 6.99761719 11.4528125 7.49132812 12 8 C7.9666466 8 6.16482462 6.39120082 3 4 C3 3.34 3 2.68 3 2 C2.01 1.67 1.02 1.34 0 1 C0 0.67 0 0.34 0 0 Z " transform="translate(600,504)" style="fill: #121313;"></path><path d="M0 0 C3 2 3 2 3.73046875 4.6015625 C3.88128906 5.59929688 4.03210937 6.59703125 4.1875 7.625 C4.34605469 8.62789062 4.50460937 9.63078125 4.66796875 10.6640625 C4.77753906 11.43492187 4.88710937 12.20578125 5 13 C3 12 3 12 2.1484375 10.0390625 C1.89320312 9.24242187 1.63796875 8.44578125 1.375 7.625 C1.11460938 6.83351563 0.85421875 6.04203125 0.5859375 5.2265625 C0 3 0 3 0 0 Z " transform="translate(1290,567)" style="fill: #0B0B0B;"></path><path d="M0 0 C2.99220268 1.36370299 5.29026529 2.94908083 7.75 5.125 C8.67039063 5.93324219 8.67039063 5.93324219 9.609375 6.7578125 C10.06828125 7.16773438 10.5271875 7.57765625 11 8 C10.01 8.495 10.01 8.495 9 9 C5.40398901 7.2019945 2.63864207 5.029552 0 2 C0 1.34 0 0.68 0 0 Z " transform="translate(238,592)" style="fill: #0A73ED;"></path><path d="M0 0 C0.66 0 1.32 0 2 0 C0.34643078 3.58273331 -1.67980703 6.80973467 -4 10 C-4.66 10 -5.32 10 -6 10 C-4.63312778 6.01328937 -2.84804907 3.11505367 0 0 Z " transform="translate(652,485)" style="fill: #0D0D0D;"></path><path d="M0 0 C0.763125 0.474375 1.52625 0.94875 2.3125 1.4375 C4.96410548 3.10106097 4.96410548 3.10106097 8 4 C8.33 4.99 8.66 5.98 9 7 C4.48521602 6.46884894 1.65333143 4.63379708 -2 2 C-1.34 1.34 -0.68 0.68 0 0 Z " transform="translate(336,387)" style="fill: #128BF0;"></path><path d="M0 0 C0.99 0 1.98 0 3 0 C2.67 2.64 2.34 5.28 2 8 C0.68 7.01 -0.64 6.02 -2 5 C-1.34 3.35 -0.68 1.7 0 0 Z " transform="translate(670,515)" style="fill: #2A2A2A;"></path><path d="M0 0 C0.66 0 1.32 0 2 0 C0.33248852 3.94139078 -2.22710649 6.7892812 -5 10 C-5.66 9.67 -6.32 9.34 -7 9 C-5.88266271 7.49428343 -4.75589965 5.99555708 -3.625 4.5 C-2.99851562 3.6646875 -2.37203125 2.829375 -1.7265625 1.96875 C-1.15679688 1.3190625 -0.58703125 0.669375 0 0 Z " transform="translate(1117,557)" style="fill: #080808;"></path><path d="M0 0 C3.01111938 4.51667907 3.10067926 7.6639991 3 13 C-0.01111938 8.48332093 -0.10067926 5.3360009 0 0 Z " transform="translate(1070,542)" style="fill: #5E5F5D;"></path><path d="M0 0 C2.45823172 3.68734758 3.01242616 6.69699971 4 11 C0.96682713 8.97788475 0.14015354 8.32544781 -1 5 C-0.625 2.25 -0.625 2.25 0 0 Z " transform="translate(1273,419)" style="fill: #4A4A4A;"></path><path d="M0 0 C4.29 0.66 8.58 1.32 13 2 C13 2.33 13 2.66 13 3 C9.37 3.33 5.74 3.66 2 4 C1.34 2.68 0.68 1.36 0 0 Z " transform="translate(192,393)" style="fill: #44E073;"></path><path d="M0 0 C1.22589844 0.15275391 1.22589844 0.15275391 2.4765625 0.30859375 C3.41628906 0.43427734 3.41628906 0.43427734 4.375 0.5625 C4.045 1.2225 3.715 1.8825 3.375 2.5625 C0.405 2.5625 -2.565 2.5625 -5.625 2.5625 C-5.955 1.9025 -6.285 1.2425 -6.625 0.5625 C-4.10446405 -0.69776798 -2.7707902 -0.35624445 0 0 Z " transform="translate(202.625,392.4375)" style="fill: #087BFC;"></path><path d="M0 0 C3.29696105 1.09898702 4.04670589 1.94597387 6.1875 4.5625 C6.71730469 5.20316406 7.24710938 5.84382812 7.79296875 6.50390625 C8.19128906 6.99761719 8.58960938 7.49132812 9 8 C8.67 8.66 8.34 9.32 8 10 C6.66070495 8.71451591 5.32871357 7.42141845 4 6.125 C2.88625 5.04605469 2.88625 5.04605469 1.75 3.9453125 C0 2 0 2 0 0 Z " transform="translate(651,576)" style="fill: #040404;"></path><path d="M0 0 C2.24606427 1.77444972 2.95081002 2.58352485 3.29296875 5.48046875 C3.25816406 6.37378906 3.22335937 7.26710938 3.1875 8.1875 C3.16042969 9.08855469 3.13335938 9.98960937 3.10546875 10.91796875 C3.07066406 11.60503906 3.03585937 12.29210937 3 13 C2.67 13 2.34 13 2 13 C2 11.02 2 9.04 2 7 C1.34 7 0.68 7 0 7 C0 4.69 0 2.38 0 0 Z " transform="translate(637,518)" style="fill: #282728;"></path><path d="M0 0 C0.33 0.66 0.66 1.32 1 2 C0.22265625 4.1640625 0.22265625 4.1640625 -0.9375 6.625 C-1.31777344 7.44226563 -1.69804688 8.25953125 -2.08984375 9.1015625 C-2.39019531 9.72804688 -2.69054687 10.35453125 -3 11 C-3.33 11 -3.66 11 -4 11 C-3.56179109 6.44262737 -3.14958831 3.42346555 0 0 Z " transform="translate(645,497)" style="fill: #0D0D0D;"></path><path d="M0 0 C3.72114571 2.31537955 6.61229661 4.28579473 9 8 C6 8 6 8 3.375 5.6875 C1 3 1 3 0 0 Z " transform="translate(712,494)" style="fill: #141414;"></path><path d="M0 0 C-1.13474948 3.40424844 -1.96811304 4.21653709 -5 6 C-5.99 5.67 -6.98 5.34 -8 5 C-3.375 0 -3.375 0 0 0 Z " transform="translate(358,506)" style="fill: #2084F2;"></path><path d="M0 0 C3.6875 0.875 3.6875 0.875 7 2 C6.67 2.66 6.34 3.32 6 4 C1.545 3.01 1.545 3.01 -3 2 C-2.01 1.34 -1.02 0.68 0 0 Z " transform="translate(534,514)" style="fill: #2B2B2B;"></path><path d="M0 0 C0.99 0 1.98 0 3 0 C2.01 2.97 1.02 5.94 0 9 C-0.95904856 5.16380575 -0.91892116 3.67568464 0 0 Z " transform="translate(1230,514)" style="fill: #4E4E4E;"></path><path d="M0 0 C3.36720387 1.39332574 4.9859524 2.9789286 7 6 C4 6 4 6 1.8125 4.125 C0 2 0 2 0 0 Z " transform="translate(504,496)" style="fill: #0F0F0F;"></path><path d="M0 0 C2.12508244 3.18762365 2.5020163 5.26512223 3 9 C0.9375 7.3125 0.9375 7.3125 -1 5 C-0.75 2.25 -0.75 2.25 0 0 Z " transform="translate(878,486)" style="fill: #232322;"></path><path d="M0 0 C1.5625 1.1875 1.5625 1.1875 3 3 C2.6875 5.6875 2.6875 5.6875 2 8 C-0.36556709 5.63443291 -0.58244041 4.25696479 -1 1 C-0.67 0.67 -0.34 0.34 0 0 Z " transform="translate(529,470)" style="fill: #363737;"></path><path d="M0 0 C0.66 0.66 1.32 1.32 2 2 C0.625 4 0.625 4 -1 6 C-1.66 6 -2.32 6 -3 6 C-3.33 6.66 -3.66 7.32 -4 8 C-3.50168276 4.31245243 -2.89932357 2.39509338 0 0 Z " transform="translate(532,451)" style="fill: #4D4E4D;"></path></svg>